<svg xmlns="http://www.w3.org/2000/svg" viewBox="0 0 574.73 574.28"><g id="Layer_2" data-name="Layer 2"><g id="Layer_1-2" data-name="Layer 1"><g id="zlRxEA.tif"><path d="M0,429.51c.63-40.26,14.25-74.65,42-102.88,35.28-36,70.81-71.68,106.92-106.8,23.74-23.1,52.85-35.88,85.91-39,36.74-3.48,70.19,5.84,100,27.47,7.23,5.24,14.29,11.25,19.8,18.19,12.08,15.22,9.92,36.71-3.83,48.91-14.91,13.23-36,12.57-50.82-1.19-23.12-21.41-49.63-26.56-79.13-15.42a66.27,66.27,0,0,0-23.35,15.52c-34.62,34.56-69.35,69-103.75,103.79-28.06,28.36-27.38,74.15,1.1,102.42,28,27.74,73.76,27.83,101.9.06C214,463.51,231,446.25,248.21,429.14c13.35-13.27,33.1-14.85,47.89-3.95,17.62,13,20.33,38.34,4.88,54.2-20,20.5-40.09,40.94-61.26,60.16-22.86,20.76-50.66,31.58-81.39,34.16-36.14,3-69.23-6-98.44-27.57C24.43,520,5,484.52.65,440.72.26,436.77.18,432.79,0,429.51Z"/><path d="M574.73,143.74c-.6,42-14.81,76.63-43,105.18-34.41,34.79-69.12,69.27-103.78,103.8-48.21,48-126.66,55.26-182.86,16.9-9.54-6.5-18.86-13.29-25.85-22.7-10.33-13.9-8.78-34.06,3.52-46.72,12.14-12.5,32.52-14.5,46.63-4.36,4.08,2.92,7.66,6.53,11.6,9.65,28.67,22.72,70,20.68,95.91-5Q428.81,248.9,480.38,197c28.14-28.39,28.34-73.69.84-101.91a72.65,72.65,0,0,0-102.75-1.61c-17.32,16.8-34.19,34.06-51.25,51.12-7.35,7.35-16.07,11.74-26.58,11.62-15.49-.19-27.12-7.2-33.45-21.37-6.47-14.46-4.33-28.53,6.62-39.83,19.73-20.37,39.78-40.48,60.61-59.72C354.47,16.75,378.87,6.14,405.8,2c40.34-6.28,77.37,2.59,110.07,26.93,33.57,25,52.67,58.83,57.77,100.43C574.3,134.69,574.47,140.13,574.73,143.74Z"/></g></g></g></svg>