<svg xmlns="http://www.w3.org/2000/svg" viewBox="0 0 855.98 978.85"><g id="Layer_2" data-name="Layer 2"><g id="Layer_1-2" data-name="Layer 1"><g id="IFE327.tif"><path d="M130.81,978.85c-8.11-.34-16.25-1.2-24.34-.92-45.7,1.58-96-38.43-105.18-91.12C-.32,877.55.05,867.88.05,858.4Q-.06,475.53.27,92.65c0-7,3.86-14.28,6.77-21.07,15.56-36.41,41.58-61.17,81.09-69C101.34,0,115.27.57,128.87.53q185-.48,370-.53c4,0,8.06,1.6,12,2.79,26.44,8,48.5,22.34,64.18,45.49,13,19.2,19.48,40.58,20.22,63.7.2,6.31,0,12.63,0,19.33H535c-.54-8.31-.42-16.66-1.75-24.77C530.4,89.29,522.46,74.62,506,67.27c-7.56-3.38-16.73-4-25.23-4.29-22.28-.76-44.6-.85-66.9-.87q-116.61-.13-233.21,0c-25.62.06-51.25,1.48-76.86,1.17C86.11,63.09,66.35,80.47,63,99a139.69,139.69,0,0,0-2.67,22.73c-.36,22-.13,44-.13,66.45H332.43c-1.39,1.77-2.05,2.81-2.89,3.67-7.83,8-15.57,16-23.63,23.68a11.71,11.71,0,0,1-7.23,3.12q-107.11.69-214.22,1c-7.63,0-15.26,0-23.24,0V741H534.46c0-8-.12-16.44.1-24.86.05-1.92.75-4.45,2.1-5.62,18.82-16.36,37.8-32.54,57.25-49.19.19,1.7.44,2.91.44,4.11.31,57.45.8,114.89.74,172.33,0,16.77-.43,33.71-2.77,50.28-4.08,28.93-19.93,51.3-42.92,68.79-12.17,9.24-26.07,15.17-40.25,20.47a15.86,15.86,0,0,1-5.39.63q-40.44.21-80.89.37a51.86,51.86,0,0,0-5.39.57ZM59.89,772.36a12.22,12.22,0,0,0-.4,2c.52,31,1.22,61.92,1.52,92.89.14,14.94,5.59,27.34,16.86,36.8,7.64,6.42,15.37,13,26.57,12.95,85.39-.14,170.79,0,256.18-.12,42.11-.08,84.21-.61,126.32-1,7.67-.08,15.1-1.06,21.83-5.65,15.76-10.77,24.67-24.82,24.72-44.53.07-29.46,1-58.92,1.54-88.39,0-1.59,0-3.19,0-4.95Z"/><path d="M856,410.36c-1.33,9.33-1.65,18.95-4.16,27.95-24.17,86.48-79.35,140.82-167.73,159.88-22.89,4.93-46.34,4.46-69.6,3.78-9.67-.28-16.66,2.6-23.88,9-26.45,23.33-53.49,46-80.42,68.78-6.62,5.59-13.43,10.58-23.18,9.64-7.68-.73-12.88-4.92-17.87-9.83-.94-.94-.9-3.09-.94-4.7-.67-22.13-1.46-44.25-1.76-66.39-.06-5.3-1.59-7.39-6.89-8.39-24.39-4.58-48.07-11.52-69.86-23.8-57.33-32.31-93-80.95-106.77-145-11.55-53.94-2.46-105.65,25.11-152.89,32.25-55.25,81.28-88.87,143.92-102.24a84.76,84.76,0,0,1,17.39-1.34q93.85-.15,187.72-.08c55.4,0,100.39,23.82,138.66,61.79,29.48,29.25,48.38,64.76,57.54,105.3,1.52,6.75,1.84,13.77,2.72,20.67ZM514,615.88c3.16-2.69,5.41-4.64,7.7-6.53,19.32-16.05,38.55-32.2,58.09-48a20,20,0,0,1,10.9-3.93q30.92-1.53,61.86-2.17c39.76-.79,74-15.92,102.86-42.12,42.13-38.17,59.93-86.32,54.18-143-1-9.73-1.69-19.67-4.35-29a165.28,165.28,0,0,0-54.56-83.43C723,234.81,692,220.17,654.84,220.41c-48.1.31-96.2-.73-144.29-.72-16.62,0-33.41.11-49.8,2.43-31.13,4.4-57.95,18.92-81,39.92-32,29.12-49.33,65.76-53.31,108.78-3.21,34.8,1.91,68.07,19.42,98.65,28,48.9,69.75,77.72,126,85a279.4,279.4,0,0,1,28.81,5.41c5.75,1.36,9.31,5.44,9.84,11.77.5,6.11,1.45,12.2,1.92,18.32C513.05,598.17,513.42,606.44,514,615.88Z"/><path d="M295.78,139.62c-17.13,0-34.26-.28-51.38.09-12.82.28-17.72-13.32-12.53-22.35,3.12-5.43,8.14-6.47,13.59-6.66,9.81-.33,19.62-.69,29.43-.65,23.79.1,47.58.41,71.37.67a32.22,32.22,0,0,1,4.45.56c12.92,2,14.12,3.43,13.87,16.25-.14,7.07-2.35,10-9.53,11a212.78,212.78,0,0,1-22.84,1.81c-12.13.3-24.28.08-36.43.08Z"/><path d="M301.32,807c18.3,0,32.94,15,33,33.62,0,19.74-14.1,33.46-34.35,33.35a32.86,32.86,0,0,1-32.59-33.31C267.5,821.51,282.24,806.91,301.32,807Z"/></g><path d="M566.84,360q-53.4,0-106.79,0c-11.15,0-19.7-7.24-21.63-18.23-2.16-12.25,7.52-24.2,20-24.7.61,0,1.23,0,1.84,0H673.82c10.53,0,19,6.47,21.43,16.27a21.39,21.39,0,0,1-20.71,26.66q-50.94.1-101.87,0Z"/><path d="M545.73,464.67q-42.94,0-85.9,0a21.47,21.47,0,1,1-.27-42.94c21.88-.05,43.77,0,65.65,0q53.09,0,106.16,0a21.48,21.48,0,1,1-.34,42.95Z"/></g></g></svg>