<svg xmlns="http://www.w3.org/2000/svg" viewBox="0 0 184.55 103.99"><defs><style>.cls-1{fill:#2a627c;}</style></defs><g id="Layer_2" data-name="Layer 2"><g id="Layer_1-2" data-name="Layer 1"><g id="OV83IQ.tif"><path class="cls-1" d="M92.15,0h81.78c3.91,0,8.07.22,9.92,4.24s-.41,7.8-3.12,10.87C172,25,163.23,34.69,154.46,44.46q-22,24.48-44,48.95C105.75,98.67,101,103.6,93.17,104c-6.87.32-12.24-2.32-16.72-7.29Q52.29,69.81,28.07,43,16.73,30.36,5.41,17.74c-1-1.11-2.42-2.1-2.87-3.4C1.41,11-.6,7.26.17,4.3,1.25.21,5.92,0,9.87,0Z"/></g></g></g></svg>