<svg xmlns="http://www.w3.org/2000/svg" viewBox="0 0 344.08 343.07"><g id="Layer_2" data-name="Layer 2"><g id="Layer_1-2" data-name="Layer 1"><g id="PIRLiy"><path d="M120.09,257.59c2,29.76-5.8,34.35-34.35,34.47-28.12.12-34-6.39-34-33.6,0-29.24,4.56-35.32,35-35.15C115.44,223.47,121.79,228.24,120.09,257.59Zm-16.63.25c0-17.51,0-17.61-17.95-17.48-19.43.15-16.72-2.58-16.75,17,0,20.08-2.47,17.59,17.2,17.69C103.46,275.16,103.46,275.09,103.46,257.84Z"/><path d="M120.09,85.76c1.65,29.49-4.33,34.24-34.21,34.38-29.28.15-34-6.41-34.13-34.17-.09-28.63,5.53-34.74,34.82-34.58C113.89,51.55,122.13,56.08,120.09,85.76Zm-16.63,0c-.31-20.2,2.79-17.26-17.38-17.32C66.3,68.35,68.71,66,68.76,85.94s-2.84,17,17.53,17.14C103.46,103.23,103.46,103.11,103.46,85.73Z"/><path d="M257.49,119.74c-28.7,1.65-33.7-4.48-33.84-33.84-.13-29.78,6.17-34.45,34.71-34.51,27.89,0,34.22,5.71,34,34.45C292.23,113.63,288,121.77,257.49,119.74Zm17.95-34c-.2-19.84,2.42-17.42-17.53-17.37s-17-2.86-17.19,17.48c-.15,17.22,0,17.34,17.29,17.19C278.27,102.9,275.13,105.88,275.44,85.78Z"/><path d="M0,57.17C.84,48.44.59,39.43,2.74,31,7.47,12.6,23.38.82,42.3.49,53.57.3,64.84.54,76.11.39,82,.32,85.78,2.93,85.69,8.8s-4,8.31-9.83,8.24c-10.35-.13-20.71-.15-31.06,0-16.46.23-27.2,11.08-27.41,27.65-.13,10.35-.1,20.71,0,31.06.05,5.85-2.58,9.63-8.46,9.58s-8.33-4-8.17-9.82c.16-6.08,0-12.18,0-18.27Z"/><path d="M287,.43c38.51-3.72,60,17.05,56.44,56.6-.57,6.35.8,13-.45,19.11-.7,3.47-4.51,8.2-7.65,8.86-5.6,1.18-8.59-3.16-8.56-9,0-10.35.09-20.71,0-31.06-.2-17-11-27.71-28.11-27.88-10.05-.1-20.11-.13-30.15,0-5.73.09-9.86-2.08-10-8C258.3,2.48,262.57.19,268.73.39S280.91.43,287,.43Z"/><path d="M.8,285.55c0-6.4-.84-13,.36-19.12.62-3.17,4.89-5.64,7.5-8.42,2.9,2.84,8,5.46,8.29,8.55,1,10.56.32,21.28.43,31.94.19,17,11,27.74,28.08,27.92,10,.1,20.1.12,30.15,0,5.69-.08,9.87,2,10,8,.21,6.53-4,8.78-10.2,8.68-10.66-.17-21.32.06-32-.08C18.9,342.66,1.16,324.81.8,300.16.73,295.29.79,290.42.8,285.55Z"/><path d="M344.08,286.7c-.78,8.43-.48,17.14-2.54,25.25-4.79,18.88-20.73,30.72-40.14,31-11,.17-21.93-.07-32.89.1-5.72.09-9.87-1.93-10-8-.16-6.53,4.12-8.78,10.24-8.7,10.35.14,20.71.18,31.06,0,15.87-.28,26.7-11.21,27-27.17.16-10.35.13-20.71,0-31.06-.07-5.71,2-9.86,8-10,6.53-.18,8.84,4.07,8.64,10.23s0,12.18,0,18.28Z"/><path d="M223.71,274.65H240.1c1.71-6.3-1.77-16.61,9.37-16.46,10.28.13,7.23,9.27,8.57,16.09h17c.14-2.79-.59-6,.63-8,1.92-3.19,5.13-7.68,7.84-7.71s7.32,4.2,8.08,7.3a36.21,36.21,0,0,1,0,17.19c-.88,3.37-5.43,8.11-8.46,8.21-22.54.69-45.12.62-67.66.07-2.91-.07-7.72-3.88-8.17-6.55a60.89,60.89,0,0,1,.18-20.73c.45-2.43,5.61-5.47,8.61-5.46,2.32,0,5.33,4,6.74,6.82C224.07,267.9,223.47,271.28,223.71,274.65Z"/><path d="M189.55,137.88v16.05c3.11.28,6.65-.4,8.77,1,3.09,2.07,7.1,5.66,7.1,8.59,0,2.54-4.91,7-7.91,7.26a219.05,219.05,0,0,1-33.79,0c-3-.24-8.1-4.77-8-7.22.09-3,4.11-6.59,7.27-8.65,2.2-1.43,5.8-.7,9.17-1V137.46c-7.78,0-15.54.16-23.28-.05-6.08-.15-11.2-2.24-10.58-9.54.53-6.31,5.49-7.26,10.75-7.26q22.86,0,45.73,0c5.56,0,10.84.81,11.16,7.79.31,6.79-4.57,8.57-10.22,9.06C193.89,137.61,192.08,137.71,189.55,137.88Z"/><path d="M188.92,223.71V206.2c-3.37-.21-6.89.55-9.14-.8-2.9-1.74-6.6-5.17-6.6-7.87s3.67-7.41,6.39-7.94a51.48,51.48,0,0,1,19-.07c2.84.53,6.9,4.77,7.1,7.56.81,11.5.45,23.08.31,34.64-.07,6.13-4,8.53-9.59,8.57-16.12.09-32.23.06-48.35,0-5.51,0-9.73-2.11-9.84-8.27-.11-6.86,4.44-8.42,10.36-8.37C161.87,223.79,175.16,223.71,188.92,223.71Z"/><path d="M189.42,68.35c-13.66,0-26.36-.07-39,0-6.19.05-12.27-.25-12.13-8.48.13-7.49,5.72-8.2,11.67-8.16,14.91.1,29.83.22,44.74,0,8.08-.14,11.77,3.09,11.51,11.36-.32,9.73-.23,19.48,0,29.21.13,6.12-2.13,10.63-8.49,10.49s-8.41-4.88-8.26-10.86C189.55,84.37,189.42,76.84,189.42,68.35Z"/><path d="M240.65,223.26h16.62c.39-3.39.09-6.66,1.25-9.29s3.57-6.59,5.86-6.92a69.47,69.47,0,0,1,20.76-.1c2.65.44,6.4,5.39,6.28,8.13s-4.27,5.65-7.29,7.4c-2.1,1.22-5.28.59-8.5.83-.29,3.22.36,6.78-1.06,9-2.05,3.18-5.45,7.38-8.56,7.63a195.19,195.19,0,0,1-33.76-.08c-3-.27-6.85-5.23-7.84-8.73-1.35-4.8-.19-10.27-.38-15.45-.21-5.57,2.64-9.75,7.71-8.89,3.34.56,6.43,5,8.72,8.33C241.59,216.75,240.65,219.82,240.65,223.26Z"/><path d="M155.11,274.61c-.19,3.82.6,7.1-.67,9-2,3.12-5.44,7.38-8.27,7.38-2.68,0-5.39-4.82-8-7.6-.31-.33-.06-1.18-.09-1.79-1.19-23.84-1-24,22.78-24,6.4,0,13-.87,19.11.49,3.46.78,6.09,5.27,9.1,8.09-3.05,2.81-5.82,7.52-9.21,8C171.88,275.42,163.62,274.61,155.11,274.61Z"/><path d="M275,172.19c-6.23-2.46-16.5,2.13-16.41-9,.08-10.59,9.43-7.93,16.4-9.1.18-2.75-.49-5.91.71-7.94,1.89-3.19,5.06-5.61,7.68-8.36,2.88,2.83,8,5.47,8.25,8.54a187.53,187.53,0,0,1,0,33.76c-.28,3.09-5.46,5.74-8.39,8.59-2.58-2.85-5.68-5.41-7.54-8.67C274.46,177.92,275.13,174.79,275,172.19Z"/><path d="M121.15,154.06c3.16.29,7-.4,9.53,1.15,2.89,1.79,6.33,5.6,6.25,8.44-.08,2.55-4.2,5.85-7.26,7.2-2.8,1.24-6.56.35-9.9.35-15.55,0-15.59,0-16.8-16.87-2.78,0-6.3,1-8.42-.25-3.12-1.87-7.22-5.41-7.22-8.23s4.45-5.78,7.49-7.92c1.42-1,4.13-.21,6.25-.22C118.33,137.68,118.33,137.68,121.15,154.06Z"/><path d="M77.18,205.69c-5.47,0-11.22,1-16.3-.36-3.39-.92-5.83-5.3-8.69-8.13,2.74-2.69,5.31-7.48,8.24-7.71a220.43,220.43,0,0,1,34.57,0c3,.24,5.55,5.06,8.31,7.78-2.94,2.81-5.48,7.2-8.91,8.06C89,206.7,83,205.7,77.18,205.69Z"/><path d="M224.08,163.35c0-5.76-.86-11.71.35-17.2.7-3.18,4.77-7.77,7.35-7.78,2.9,0,8.15,4.19,8.37,6.88a223.86,223.86,0,0,1,.06,35.41c-.22,2.88-5.26,5.39-8.09,8.07-2.68-3-6.81-5.63-7.7-9.09C223.1,174.52,224.08,168.81,224.08,163.35Z"/><path d="M68.62,154.86c0,3,1,6.59-.24,9-1.57,2.94-4.95,6.71-7.64,6.79s-7.59-3.51-8.07-6.13a56.33,56.33,0,0,1,0-19.85c.49-2.68,5.19-6.37,7.94-6.35S66.9,142,68.34,145C69.65,147.69,68.62,151.53,68.62,154.86Z"/><path d="M137.93,205.71c-2.73,0-6,1-8.06-.23-3.35-2-5.88-5.39-8.76-8.2,3-2.73,5.57-6.86,9-7.86a29.29,29.29,0,0,1,15.27,0c3.53,1,8.14,4.65,8.8,7.84,1.17,5.61-3.18,8.58-9,8.47C142.78,205.68,140.35,205.72,137.93,205.71Z"/><path d="M154.18,103h-3.63c-6.15.09-12.21-.59-12.29-8.52-.07-8.22,6.22-8.32,12.25-8.24,3.94.06,8.26-1,11.71.31s8,4.44,8.84,7.62c1.55,5.9-3.19,8.43-8.71,8.78C159.64,103.17,156.91,103,154.18,103Z"/></g></g></g></svg>